:SAMPLES-PER-SECOND 30
:FULLY-SPECIFIED
:DEGREES
416
root  -16.8146 34.4555 11.0995 -178.107 58.1011 -171.433
RightUpLeg  -27.6459 -1.68363 -11.3835
RightLeg  44.8575 2.32098 2.14572
RightFoot  -10.9404 -0.166376 25.2545
RightToes  -5.8209e-011 0 -3.6325e-017
Spine  14.1147 -0.5676 -5.53029
Spine1  23.9883 -2.32447 1.78743
HEad  -18.9723 45.5132 -13.8
LeftShoulder1  1.40344 -2.01045 -18.958
LeftArm  14.557 3.90587 -60.1866
LeftForeArm  8.09112 -66.2353 -26.1772
LeftHand  -3.16446 -3.06083 41.9671
RightShoulder  0.745063 -0.119345 15.3493
RightArm  -14.3876 -10.0317 62.8285
RightForeArm  2.11038 63.562 23.2009
RightHand  -4.07231 8.70631 -32.96
LeftUpLeg  -11.4884 -12.082 13.7911
LeftLeg  57.6832 3.87374 7.13834
LeftFoot  -31.9168 -4.67287 -26.5925
LeftToes  -3.91115e-011 -2.2622e-010 9.51032e-012
417
root  -17.8032 34.7447 10.9791 -178.15 56.4861 -171.151
RightUpLeg  -26.0848 -1.9006 -12.1545
RightLeg  40.5185 1.27256 0.939879
RightFoot  -8.19382 -0.746441 24.8915
RightToes  -5.8209e-011 0 -3.6325e-017
Spine  14.367 -1.63975 -5.64902
Spine1  24.2218 -3.48755 1.35825
HEad  -17.5319 45.9425 -11.89
LeftShoulder1  1.71653 -3.6179 -17.5067
LeftArm  11.9202 -1.89026 -64.5957
LeftForeArm  2.22958 -63.4762 -23.2694
LeftHand  -3.02568 -2.50629 42.7994
RightShoulder  0.903523 0.87142 13.836
RightArm  -16.4857 -6.65242 67.5401
RightForeArm  -7.79192 57.5435 18.5702
RightHand  -4.24159 8.74964 -34.1293
LeftUpLeg  -12.0143 -10.1382 13.8008
LeftLeg  54.6096 2.92057 4.9227
LeftFoot  -34.0768 -4.48166 -22.958
LeftToes  -3.91115e-011 -2.2622e-010 9.51032e-012
418
root  -18.8038 35.7297 10.8606 -177.387 54.5789 -170.192
RightUpLeg  -21.6674 -1.75602 -12.0391
RightLeg  30.5722 -0.976259 -0.83103
RightFoot  -2.69163 -1.78837 23.2081
RightToes  -5.8209e-011 0 -3.6325e-017
Spine  15.6167 -2.87174 -1.83791
Spine1  23.3609 -2.66969 -2.4479
HEad  -14.0037 44.1256 -6.63954
LeftShoulder1  1.66569 -4.47653 -13.9171
LeftArm  12.9451 -6.66837 -69.1705
LeftForeArm  2.7025 -63.4367 -23.2011
LeftHand  -2.87586 -2.47673 41.0294
RightShoulder  0.93114 1.67408 10.8125
RightArm  -15.4588 -5.29266 72.6164
RightForeArm  -9.81103 56.11 17.7633
RightHand  -4.37992 8.8248 -34.992
LeftUpLeg  -12.1041 -8.13935 14.2006
LeftLeg  49.6622 2.20443 3.2678
LeftFoot  -31.0197 -3.25926 -19.7177
LeftToes  -3.91115e-011 -2.2622e-010 9.51032e-012
419
root  -19.602 36.9923 10.8575 -177.278 55.8477 -171.02
RightUpLeg  -18.103 -0.273152 -11.9711
RightLeg  20.3586 -2.42042 -1.25928
RightFoot  5.23849 -3.15577 21.6449
RightToes  -5.8209e-011 0 -3.6325e-017
Spine  15.7764 -3.10738 2.62579
Spine1  22.0982 0.774956 -9.91747
HEad  -8.7369 41.7615 0.81392
LeftShoulder1  1.37864 -4.26212 -10.4608
LeftArm  16.705 -9.2602 -71.0959
LeftForeArm  9.35039 -66.4907 -26.5377
LeftHand  -2.876 -2.94832 38.8849
RightShoulder  0.749924 1.67315 6.83996
RightArm  -11.2861 -2.77828 78.0682
RightForeArm  -7.58571 58.0206 19.034
RightHand  -4.44396 8.74097 -35.6646
LeftUpLeg  -10.3108 -4.00816 13.6193
LeftLeg  42.0465 0.784296 1.18182
LeftFoot  -25.1225 -2.25036 -19.7616
LeftToes  -3.91115e-011 -2.2622e-010 9.51032e-012
420
root  -20.2851 38.3151 11.0077 -178.442 58.6419 -175.213
RightUpLeg  -17.9229 -1.3368 -12.6668
RightLeg  15.3385 -1.21706 -0.658465
RightFoot  13.5989 -4.72304 21.5215
RightToes  -5.8209e-011 0 -3.6325e-017
Spine  14.6623 -2.7503 3.84277
Spine1  20.1114 3.91465 -17.0824
HEad  -3.28372 40.4978 7.6417
LeftShoulder1  1.04644 -3.20525 -8.07491
LeftArm  18.91 -8.5596 -69.8753
LeftForeArm  18.3027 -71.1885 -34.4081
LeftHand  -2.79271 -3.108 37.1738
RightShoulder  0.432193 0.693598 2.03251
RightArm  -6.09888 2.73873 83.6304
RightForeArm  -3.93809 62.6545 23.1119
RightHand  -4.34861 8.35213 -35.8695
LeftUpLeg  -8.51234 1.35533 10.983
LeftLeg  31.8673 -0.667984 -0.0806627
LeftFoot  -17.1195 -0.925732 -19.9829
LeftToes  -3.91115e-011 -2.2622e-010 9.51032e-012
421
root  -20.9499 39.5696 11.2174 -179.145 58.6995 -178.888
RightUpLeg  -18.0918 -5.69639 -12.4238
RightLeg  14.7664 0.0992391 -0.331762
RightFoot  19.9447 -6.30994 22.7735
RightToes  -5.8209e-011 0 -3.6325e-017
Spine  14.2414 -3.42767 3.34093
Spine1  17.3285 3.98966 -20.7122
HEad  1.07558 40.4291 11.9129
LeftShoulder1  0.830154 -2.35774 -6.50201
LeftArm  17.8753 -4.72621 -67.478
LeftForeArm  25.2745 -74.5525 -44.4837
LeftHand  -2.5418 -2.60146 36.0698
RightShoulder  0.144665 -1.10885 -2.87563
RightArm  -1.66652 9.69018 87.8551
RightForeArm  5.51108 69.6429 33.1775
RightHand  -4.21126 7.96381 -35.7543
LeftUpLeg  -7.60669 3.69683 8.36458
LeftLeg  21.176 -1.39614 -0.254939
LeftFoot  -7.97311 0.607071 -18.8671
LeftToes  -3.91115e-011 -2.2622e-010 9.51032e-012
